<?xml version="1.0" encoding="UTF-8" standalone="no"?>
<svg
   version="1.0"
   width="923.247589pt"
   height="1087.534001pt"
   viewBox="0 0 923.247589 1087.534001"
   preserveAspectRatio="xMidYMid meet"
   id="svg4"
   sodipodi:docname="phrk-org_icon_white.svg"
   inkscape:version="1.4.4 (dcaf3e7d9e, 2026-05-05)"
   xmlns:inkscape="http://www.inkscape.org/namespaces/inkscape"
   xmlns:sodipodi="http://sodipodi.sourceforge.net/DTD/sodipodi-0.dtd"
   xmlns="http://www.w3.org/2000/svg"
   xmlns:svg="http://www.w3.org/2000/svg">
  <defs
     id="defs4" />
  <sodipodi:namedview
     id="namedview4"
     pagecolor="#505050"
     bordercolor="#ffffff"
     borderopacity="1"
     inkscape:showpageshadow="0"
     inkscape:pageopacity="0"
     inkscape:pagecheckerboard="1"
     inkscape:deskcolor="#505050"
     inkscape:document-units="pt"
     inkscape:zoom="0.75928657"
     inkscape:cx="615.05105"
     inkscape:cy="725.02271"
     inkscape:window-width="1693"
     inkscape:window-height="1363"
     inkscape:window-x="0"
     inkscape:window-y="0"
     inkscape:window-maximized="1"
     inkscape:current-layer="svg4" />
  <metadata
     id="metadata1">
Created by potrace 1.12, written by Peter Selinger 2001-2015
</metadata>
  <g
     transform="translate(-83.352086,1088.292915) scale(0.100000,-0.100000)"
     fill="#000000"
     stroke="none"
     id="g4"
     style="fill:#ffffff;fill-opacity:1">
    <path
       d="M3842 10858 c-6 -18 -27 -78 -47 -133 -20 -55 -42 -120 -50 -145 -7 -25 -27 -85 -45 -135 -28 -82 -55 -174 -96 -325 -17 -65 -68 -220 -99 -305 -12 -33 -28 -87 -34 -120 -7 -33 -16 -67 -20 -75 -11 -21 -66 -31 -132 -25 -51 5 -150 -11 -219 -34 -14 -5 -47 -15 -73 -21 -54 -15 -54 -21 4 -29 22 -3 40 -10 40 -16 0 -11 -90 -41 -166 -54 -120 -21 -411 -83 -451 -97 -24 -8 -90 -25 -146 -38 -264 -60 -409 -97 -478 -120 -102 -34 -140 -49 -140 -57 0 -11 105 -20 380 -35 273 -14 350 -21 350 -33 0 -4 -23 -14 -51 -21 -28 -8 -65 -24 -82 -37 -17 -13 -34 -23 -38 -23 -13 0 -81 -31 -77 -36 13 -13 250 -35 313 -29 72 6 283 -11 298 -24 4 -4 -32 -27 -80 -50 -122 -59 -132 -65 -133 -76 -1 -5 7 -12 17 -14 26 -5 436 18 508 29 118 19 109 22 117 -40 4 -30 8 -134 9 -230 2 -146 -1 -182 -16 -220 -23 -60 -24 -136 -2 -179 14 -27 17 -60 17 -165 0 -72 5 -171 11 -221 6 -49 12 -112 14 -140 8 -114 35 -402 40 -426 9 -41 37 -383 41 -494 2 -55 7 -136 13 -180 l9 -80 -32 -27 c-17 -15 -35 -28 -39 -28 -17 0 -384 -283 -400 -307 -4 -7 -20 -19 -35 -27 -15 -8 -43 -30 -63 -48 -20 -18 -62 -55 -93 -83 -97 -84 -169 -155 -163 -161 8 -9 124 26 210 63 43 18 89 33 101 33 12 0 44 11 72 24 47 24 150 66 159 66 19 0 -4 -35 -55 -85 -33 -33 -58 -65 -55 -72 2 -8 -28 -39 -73 -74 -42 -34 -103 -85 -134 -114 -31 -29 -74 -66 -95 -81 -47 -35 -187 -158 -268 -235 -33 -32 -86 -83 -117 -113 -32 -30 -58 -56 -58 -59 0 -8 403 198 555 282 33 19 80 45 105 58 25 13 72 41 105 63 33 21 70 39 82 39 13 1 58 21 100 44 97 55 123 68 196 101 l57 26 10 -23 c9 -23 34 -251 51 -462 5 -66 13 -142 19 -170 5 -27 12 -88 15 -135 7 -121 40 -440 65 -625 13 -94 29 -265 30 -317 0 -34 -5 -40 -67 -85 -75 -52 -221 -171 -241 -196 -12 -13 -8 -15 29 -10 60 8 50 -7 -64 -102 -52 -44 -96 -85 -96 -92 -1 -7 -10 -17 -20 -23 -20 -10 -162 -152 -157 -157 2 -2 84 29 166 63 19 8 56 26 81 39 54 29 66 31 71 11 2 -10 56 12 185 76 101 49 187 86 193 83 5 -3 10 -16 10 -28 0 -12 7 -51 15 -87 8 -36 26 -123 40 -195 43 -213 76 -346 105 -413 l27 -64 7 44 c25 149 49 258 56 258 6 0 18 -40 50 -170 7 -25 18 -65 26 -90 8 -25 18 -65 23 -90 6 -25 24 -103 41 -175 16 -71 39 -173 51 -225 11 -52 24 -108 28 -125 5 -16 19 -75 32 -130 12 -55 26 -104 31 -109 10 -13 10 -26 8 814 -1 405 -5 732 -11 755 -12 51 20 306 38 313 7 2 16 -5 19 -15 3 -10 9 -25 13 -33 5 -9 12 -31 17 -50 7 -32 9 -27 19 50 l10 84 52 31 c28 16 82 49 120 71 37 23 97 57 133 76 36 19 108 59 160 88 52 29 120 66 150 82 30 17 61 35 68 40 15 13 15 3 2 -77 -6 -33 -15 -91 -20 -130 -5 -38 -19 -131 -30 -205 -12 -74 -25 -162 -30 -195 -5 -33 -16 -109 -25 -170 -9 -60 -22 -159 -30 -220 -36 -272 -55 -406 -69 -485 -14 -79 -60 -423 -72 -535 -2 -27 -13 -106 -24 -175 -10 -69 -26 -183 -35 -255 -9 -71 -20 -155 -26 -185 -5 -30 -14 -93 -20 -140 -6 -47 -14 -112 -19 -145 -43 -320 -61 -470 -99 -845 -12 -113 -26 -230 -31 -261 -10 -56 -13 -266 -3 -239 3 8 11 29 18 45 8 17 16 41 20 55 3 14 10 34 15 45 10 22 53 171 65 220 3 16 15 47 25 70 10 22 23 67 30 100 16 78 29 102 31 55 l1 -35 14 33 c21 48 79 261 94 344 5 26 17 66 28 90 10 24 31 88 46 143 32 118 96 306 108 319 4 6 8 22 8 37 0 15 4 30 9 33 9 6 17 -49 27 -184 3 -41 10 -79 15 -84 5 -6 9 -33 10 -60 1 -51 1 -51 10 -16 5 19 14 44 19 55 4 11 11 31 13 45 3 14 12 52 22 85 48 172 92 375 120 560 24 160 89 466 126 595 10 36 21 85 25 110 4 25 14 63 24 85 9 22 21 51 26 64 8 19 14 1 34 -105 13 -71 29 -151 35 -179 l13 -50 10 40 c6 22 18 67 27 100 32 119 65 302 71 385 7 113 13 150 24 150 6 0 10 -12 11 -27 2 -106 48 191 99 642 7 55 16 118 22 140 6 22 10 66 10 99 l-2 58 68 70 c37 39 94 93 126 121 l59 52 44 -50 c23 -27 46 -59 49 -70 9 -29 80 -123 229 -303 72 -86 139 -169 150 -183 39 -51 161 -203 216 -268 31 -36 60 -74 65 -83 11 -21 94 -124 157 -194 26 -30 47 -58 47 -62 0 -4 10 -12 22 -17 20 -9 116 -138 117 -158 1 -5 -8 -5 -19 -2 -11 3 -20 3 -20 -2 0 -15 37 -68 91 -129 30 -33 81 -93 113 -133 33 -40 68 -77 78 -82 27 -14 22 -29 -9 -29 -20 0 -35 -10 -53 -34 l-25 -34 -56 57 c-31 31 -75 71 -98 90 -22 18 -41 40 -41 48 0 12 -18 44 -46 82 -2 2 -15 -6 -30 -18 -34 -27 -45 -26 -74 4 -13 14 -33 25 -44 25 -48 1 -74 53 -41 80 16 13 21 50 6 50 -4 0 -19 -8 -32 -18 -13 -10 -37 -24 -54 -32 -16 -8 -39 -22 -50 -31 -11 -9 -38 -26 -59 -38 -22 -11 -42 -24 -45 -29 -3 -4 -17 -16 -31 -26 l-25 -18 30 8 c47 13 109 8 138 -10 23 -16 25 -20 14 -44 -29 -65 -113 -142 -202 -186 -138 -68 -252 -116 -276 -116 -13 0 -42 -14 -63 -30 -22 -17 -49 -30 -61 -30 -12 0 -39 -13 -59 -29 -37 -29 -132 -68 -143 -58 -2 3 -26 -1 -51 -9 -26 -7 -64 -14 -85 -14 -21 0 -54 -7 -74 -15 -19 -8 -56 -15 -82 -15 -25 -1 -74 -7 -108 -14 -34 -7 -73 -11 -86 -9 -36 7 -52 -21 -53 -96 -2 -63 -8 -92 -41 -205 -11 -38 -12 -59 -4 -98 9 -40 8 -55 -3 -76 -8 -15 -19 -42 -25 -61 -10 -30 -9 -32 7 -26 39 16 103 17 151 1 53 -17 94 -14 231 18 42 10 92 14 141 11 41 -3 89 -1 106 4 74 21 28 -20 -94 -85 -34 -18 -94 -40 -135 -49 -40 -9 -99 -23 -130 -31 -32 -7 -72 -15 -90 -16 -18 0 -4 -4 32 -8 73 -7 257 4 310 20 74 21 223 39 242 29 13 -7 34 -7 66 1 26 6 67 15 92 21 71 15 140 39 200 70 30 16 75 33 100 38 48 11 169 70 234 114 21 15 43 27 48 27 19 0 104 43 128 65 14 12 49 39 79 59 29 20 49 36 45 36 -14 0 -155 -30 -189 -39 -45 -14 -155 -22 -155 -12 0 14 116 81 265 154 164 80 306 170 275 175 -28 5 -25 22 17 85 43 65 51 70 92 54 26 -9 36 -7 81 17 61 33 89 30 121 -17 12 -17 61 -73 108 -123 93 -99 109 -117 241 -269 90 -103 258 -270 266 -263 2 2 -9 35 -25 74 -16 38 -32 90 -36 117 -4 30 -15 56 -31 72 -13 13 -24 33 -24 45 0 11 -8 32 -17 46 -13 21 -14 25 -2 23 19 -5 304 -302 454 -473 102 -116 127 -142 121 -123 -13 41 30 4 78 -67 14 -21 44 -59 67 -83 34 -37 43 -42 56 -31 16 13 22 7 124 -109 20 -22 43 -42 51 -44 9 -2 56 -42 105 -89 128 -123 236 -220 245 -220 4 0 5 8 1 18 -9 24 -148 254 -200 330 -24 35 -43 69 -43 75 0 7 -23 44 -50 82 -32 43 -49 77 -46 88 4 18 -61 135 -145 259 -22 31 -39 60 -39 63 0 3 -8 18 -18 33 -33 48 -96 146 -108 167 -49 90 -77 135 -89 145 -8 7 -15 16 -15 21 0 10 -92 160 -122 199 -34 44 -107 158 -129 202 -12 24 -37 62 -56 86 -20 24 -59 95 -88 159 -47 101 -52 118 -43 145 l10 30 33 -32 c20 -19 38 -50 44 -76 6 -24 16 -44 21 -44 6 0 10 5 10 10 0 31 48 -2 143 -97 107 -107 126 -119 85 -53 -43 68 -118 225 -118 247 0 12 16 41 35 65 19 24 41 57 49 73 8 17 44 70 81 119 36 48 85 118 108 155 23 37 48 76 54 87 37 58 45 77 30 71 -34 -13 -25 17 33 108 10 17 19 39 19 51 1 11 10 29 20 38 22 20 91 159 91 185 0 9 9 27 20 41 11 14 20 34 20 45 0 13 -16 -4 -43 -45 -87 -135 -277 -361 -355 -422 -82 -66 -82 -50 -1 97 34 60 77 129 96 153 45 55 144 255 178 358 15 43 38 108 52 143 35 90 73 238 73 289 0 23 16 92 35 152 31 95 35 118 29 168 -5 44 -1 76 15 133 25 90 27 159 5 202 -21 39 -20 128 2 212 14 50 14 76 5 160 -6 55 -13 129 -16 165 -3 36 -14 110 -25 165 -11 55 -23 116 -27 135 -3 18 -12 45 -20 60 -7 14 -13 34 -13 45 -1 11 -7 31 -15 45 -8 14 -14 40 -15 58 0 19 -9 45 -20 59 -11 14 -20 36 -20 48 0 13 -11 47 -25 77 l-25 53 -1 -50 c-1 -27 -3 -69 -4 -92 0 -23 -4 -45 -7 -49 -4 -3 -20 8 -36 26 -30 33 -62 113 -62 157 0 31 -16 61 -52 95 -16 15 -28 36 -28 52 0 20 -14 65 -26 84 -4 6 -64 -61 -64 -71 0 -5 -6 -7 -13 -4 -8 3 -39 -18 -70 -47 -46 -42 -57 -58 -57 -83 0 -23 -8 -37 -29 -52 -16 -12 -36 -19 -43 -16 -9 4 -37 -18 -72 -55 -63 -66 -63 -69 -21 -145 36 -66 66 -196 58 -257 -5 -34 15 -144 35 -199 l9 -23 7 27 c10 42 22 32 39 -30 24 -92 31 -285 12 -364 -8 -37 -15 -89 -14 -115 0 -27 -4 -128 -10 -224 -10 -158 -18 -236 -36 -340 -8 -43 -53 -156 -76 -190 -10 -14 -25 -52 -34 -85 -27 -94 -102 -224 -131 -225 -12 0 -24 44 -24 87 0 13 -4 22 -9 19 -15 -10 -19 97 -8 194 7 52 10 149 7 215 l-5 119 -28 -134 c-16 -74 -30 -156 -32 -181 -3 -44 -30 -148 -45 -179 -5 -8 -14 -46 -21 -85 -6 -38 -17 -83 -24 -100 -7 -16 -19 -50 -28 -75 -8 -25 -27 -72 -41 -106 -14 -34 -28 -77 -31 -97 -4 -20 -17 -56 -31 -80 l-24 -44 40 -27 c22 -14 43 -26 48 -26 24 0 45 -43 46 -93 1 -35 9 -68 27 -102 15 -27 29 -71 33 -97 6 -38 11 -48 26 -48 22 0 34 -19 45 -68 5 -25 3 -32 -9 -32 -9 0 -16 5 -16 10 0 6 -6 10 -13 10 -19 0 -47 33 -47 53 0 11 -8 17 -25 17 -28 0 -56 28 -95 94 -24 41 -55 86 -125 180 -17 22 -33 39 -38 38 -31 -9 -156 129 -235 259 -12 20 -45 65 -73 100 -27 34 -70 92 -94 129 -24 36 -54 77 -67 91 -13 14 -44 54 -70 90 -25 36 -72 97 -105 137 -32 39 -82 103 -112 141 -29 39 -71 89 -92 113 -21 24 -39 48 -39 53 0 6 -15 26 -33 45 -59 63 -97 117 -97 140 0 27 19 48 637 670 1021 1029 1166 1174 1386 1390 218 213 299 300 280 300 -4 0 -52 -23 -106 -50 -55 -28 -101 -50 -103 -50 -33 0 185 237 453 495 220 212 293 285 293 297 0 4 -25 -3 -56 -17 -66 -29 -64 -29 -64 -12 0 8 57 74 127 148 235 249 488 512 521 542 67 63 17 38 -188 -92 -36 -23 -76 -47 -90 -53 -14 -7 -80 -50 -146 -95 -67 -45 -137 -90 -156 -100 -18 -10 -94 -60 -168 -111 -74 -51 -176 -121 -227 -155 -50 -34 -153 -105 -228 -157 -196 -137 -314 -212 -325 -205 -5 3 1 21 13 41 12 19 27 43 32 52 36 61 65 106 112 169 29 40 53 81 53 92 0 10 8 29 18 42 62 86 56 110 -15 59 -32 -23 -84 -59 -116 -80 -74 -49 -208 -156 -309 -245 -43 -38 -93 -80 -111 -93 -18 -12 -57 -46 -87 -75 -30 -29 -73 -68 -95 -86 -292 -244 -1262 -1199 -1596 -1572 -41 -46 -95 -105 -118 -131 -24 -27 -40 -48 -36 -48 4 0 58 42 119 93 61 51 131 109 156 128 25 18 70 55 100 80 52 44 84 66 155 105 17 9 50 35 74 57 72 66 59 25 -21 -65 -82 -93 -392 -404 -698 -702 -203 -196 -205 -198 -208 -166 -2 18 1 44 7 59 6 14 15 67 21 116 6 50 19 146 30 215 10 69 21 143 23 165 12 103 58 352 92 495 13 52 28 129 34 170 6 41 18 110 26 154 8 43 13 82 10 86 -3 4 2 30 10 58 15 50 27 178 15 165 -4 -5 -13 -24 -20 -43 -8 -19 -22 -46 -32 -59 -10 -13 -18 -29 -18 -35 0 -6 -16 -44 -35 -83 -19 -40 -35 -76 -35 -81 0 -5 -9 -17 -20 -27 -11 -10 -20 -24 -20 -32 0 -20 -44 -83 -55 -79 -5 2 -9 12 -7 22 10 68 17 331 8 346 -7 11 -5 40 7 95 9 43 14 90 11 104 -11 49 18 91 101 147 43 28 84 52 90 52 13 0 35 18 150 121 85 77 218 169 244 169 40 0 241 206 316 325 21 33 60 88 87 122 26 35 48 64 48 67 0 2 -9 2 -20 -1 -34 -9 -13 55 37 112 23 27 43 53 43 56 0 4 24 24 53 45 28 21 54 42 55 47 2 4 29 21 61 36 31 16 83 49 116 74 33 24 85 58 115 74 30 16 87 50 125 75 39 25 95 59 125 77 30 17 48 31 40 31 -38 0 -309 -76 -410 -116 -19 -8 -52 -16 -72 -18 -34 -5 -146 -55 -177 -80 -8 -6 -46 -23 -85 -37 -39 -14 -78 -29 -86 -32 -8 -4 -21 -3 -29 2 -23 15 21 143 110 314 17 32 29 61 26 63 -2 3 -36 -27 -76 -66 -44 -44 -73 -66 -76 -58 -2 7 -9 50 -15 96 -10 77 -10 87 9 123 12 22 21 44 21 49 0 5 -19 18 -42 28 -24 11 -52 29 -62 41 -11 11 -27 21 -37 21 -11 0 -29 16 -43 38 -13 20 -33 46 -45 56 -11 11 -21 27 -21 36 0 22 -39 64 -78 84 -17 9 -40 30 -53 47 -12 17 -42 40 -65 51 -24 10 -49 26 -56 36 -31 42 -271 171 -318 172 -8 0 -28 7 -44 15 -15 8 -32 13 -36 10 -14 -8 -101 23 -140 50 -44 30 -181 67 -310 84 -47 6 -136 17 -198 25 -62 8 -118 19 -125 24 -46 36 -391 43 -642 12 -88 -11 -191 -25 -230 -30 -38 -6 -107 -13 -151 -17 l-82 -6 -6 39 c-4 22 -9 68 -11 104 -6 80 -25 200 -35 219 -5 9 -14 -4 -29 -43 -11 -31 -21 -61 -21 -67 0 -20 -41 -100 -49 -95 -17 11 -36 140 -51 346 -20 270 -28 351 -38 363 -5 6 -12 64 -14 127 -2 63 -9 123 -14 133 -9 16 -12 14 -22 -15z m1314 -1892 c33 -2 72 -11 85 -19 13 -9 53 -23 89 -31 107 -25 194 -52 262 -81 34 -15 86 -36 113 -47 103 -42 119 -50 174 -91 31 -23 65 -47 76 -53 29 -16 65 -73 65 -103 0 -47 -33 -115 -109 -226 -121 -177 -225 -283 -482 -498 -14 -12 -58 -44 -98 -72 -40 -27 -98 -68 -129 -90 -32 -23 -79 -54 -107 -69 -27 -16 -57 -35 -65 -42 -8 -7 -60 -36 -115 -64 -55 -29 -104 -56 -110 -60 -16 -12 -157 -84 -195 -99 -33 -13 -169 -86 -293 -157 -32 -19 -63 -32 -68 -28 -5 3 -9 49 -9 102 -1 53 -7 210 -15 347 -8 138 -21 421 -29 630 -9 209 -20 454 -25 545 -6 91 -7 168 -3 172 30 28 692 51 988 34z m664 -1917 c0 -12 -6 -35 -14 -52 -17 -40 -56 -168 -56 -183 0 -7 -7 -25 -15 -40 -8 -16 -15 -41 -15 -56 0 -16 -4 -28 -9 -28 -9 0 -18 97 -23 243 l-3 79 55 29 c65 35 80 36 80 8z m-508 -349 c-6 -19 -18 -82 -28 -140 -29 -185 -32 -202 -58 -370 -14 -91 -35 -205 -46 -255 -16 -68 -23 -152 -30 -337 -5 -136 -18 -316 -29 -400 -11 -84 -22 -187 -26 -228 -7 -85 -13 -110 -25 -110 -5 0 -28 -13 -52 -29 -24 -16 -96 -57 -162 -90 -65 -34 -137 -74 -160 -90 -22 -15 -48 -30 -57 -34 -9 -3 -73 -40 -143 -81 -70 -42 -131 -76 -136 -76 -6 0 -10 -5 -10 -11 0 -6 -5 -9 -11 -7 -16 5 -18 40 -24 328 -2 135 -9 322 -16 415 -6 94 -9 307 -7 475 2 168 1 352 -1 409 l-5 103 140 85 c76 46 153 97 169 112 17 16 37 30 45 33 8 3 48 28 89 57 65 44 103 58 86 30 -22 -35 150 63 211 121 28 27 80 62 116 78 36 16 89 46 119 66 l54 36 3 -27 c2 -15 -1 -43 -6 -63z"
       id="path1"
       style="fill:#ffffff;fill-opacity:1" />
    <path
       d="M7213 8177 c-17 -7 -23 -19 -23 -41 -1 -31 -21 -124 -36 -161 -4 -11 -18 -34 -31 -52 l-24 -31 28 -16 c15 -8 46 -24 68 -35 45 -23 128 -105 146 -145 7 -14 15 -26 18 -26 4 0 14 -13 24 -29 15 -25 15 -30 2 -41 -15 -13 -81 -10 -120 6 -11 4 32 -44 95 -107 63 -63 123 -129 132 -146 9 -18 21 -33 26 -33 4 0 16 16 25 35 9 19 23 35 32 35 8 0 22 11 30 24 9 14 28 29 43 34 34 13 239 205 223 210 -14 5 -41 56 -47 88 -3 14 2 26 13 32 14 8 10 17 -30 63 -25 30 -57 67 -70 83 -13 16 -33 29 -44 30 -12 0 -40 22 -63 49 -45 50 -61 59 -53 27 3 -11 2 -20 -2 -20 -22 0 -81 49 -116 96 -21 29 -48 58 -58 63 -27 15 -162 21 -188 8z"
       id="path2"
       style="fill:#ffffff;fill-opacity:1" />
    <path
       d="M2790 8086 c-36 -24 -71 -51 -79 -60 -7 -9 -19 -16 -26 -16 -13 0 -26 -12 -119 -109 -33 -33 -65 -61 -72 -61 -6 0 -29 -21 -50 -46 -26 -29 -48 -46 -66 -48 -41 -5 -119 -79 -216 -206 -23 -30 -54 -66 -69 -80 -14 -14 -46 -54 -70 -90 -24 -36 -59 -85 -77 -110 -19 -25 -66 -106 -106 -180 -40 -74 -85 -148 -100 -165 -50 -55 -171 -301 -194 -397 -5 -22 -3 -26 9 -22 8 4 15 1 15 -4 0 -14 -39 -136 -102 -322 -41 -122 -50 -163 -58 -260 -5 -63 -17 -142 -25 -175 -62 -236 -81 -418 -54 -535 6 -25 12 -101 14 -170 2 -69 5 -154 7 -189 l3 -65 -70 -53 c-38 -30 -81 -65 -95 -79 -25 -26 -25 -26 -2 -19 55 16 14 -30 -111 -126 -34 -25 -82 -65 -106 -88 -24 -22 -46 -41 -49 -41 -7 0 -92 -83 -88 -87 5 -6 71 24 134 62 33 19 72 35 85 35 31 0 141 49 186 84 19 14 44 26 55 26 12 1 32 7 46 15 37 21 40 19 40 -30 0 -24 7 -59 15 -77 8 -18 24 -77 34 -131 12 -62 27 -110 42 -132 13 -19 26 -30 27 -25 11 31 31 -2 38 -63 3 -21 14 -53 25 -72 15 -24 21 -55 23 -112 1 -43 6 -87 11 -98 40 -100 83 -187 109 -220 17 -21 36 -48 43 -60 33 -56 52 -99 58 -128 9 -42 62 -137 121 -217 25 -35 52 -76 58 -92 22 -51 180 -238 202 -238 7 0 26 -11 41 -25 l28 -26 -25 -17 c-13 -9 -57 -46 -98 -82 -66 -58 -71 -65 -51 -70 22 -6 22 -6 -7 -28 -50 -38 -317 -284 -369 -341 -60 -65 -47 -62 96 24 60 36 114 65 121 65 16 0 99 50 171 102 34 25 58 36 71 32 15 -3 52 15 121 61 55 36 105 68 111 71 6 3 30 -13 52 -35 23 -23 46 -41 51 -41 19 0 79 -60 91 -92 16 -41 146 -167 180 -174 52 -11 97 -41 169 -113 72 -74 233 -201 253 -201 6 0 44 -20 85 -45 40 -25 79 -45 86 -45 7 0 32 -11 56 -25 23 -14 51 -25 60 -25 9 0 31 -10 48 -22 40 -30 141 -77 267 -123 89 -33 102 -31 44 5 -27 17 -52 30 -56 30 -5 0 -17 10 -28 21 -10 12 -26 24 -35 28 -22 8 -149 122 -149 132 0 15 19 10 60 -16 44 -28 136 -65 162 -65 9 0 61 -18 115 -41 57 -24 124 -44 161 -48 61 -7 70 -4 54 14 -17 20 -32 93 -42 200 -17 186 -25 224 -77 343 -10 22 -12 47 -8 69 7 39 -4 53 -41 53 -12 0 -52 21 -90 46 -55 37 -70 43 -72 30 -2 -9 -10 -16 -18 -16 -14 0 -102 55 -114 70 -3 4 -16 13 -30 20 -42 22 -120 83 -120 96 0 10 -101 84 -116 84 -7 0 -90 58 -192 135 -37 28 -79 58 -94 68 -15 9 -34 30 -43 47 -8 16 -45 49 -83 73 -92 60 -268 235 -280 279 -11 39 -78 141 -116 177 -14 14 -26 30 -26 36 0 24 -61 107 -74 102 -19 -7 -43 21 -72 83 -13 29 -33 63 -43 77 -11 13 -27 49 -36 80 -9 30 -33 87 -54 127 -21 39 -41 83 -45 98 -3 15 -15 35 -25 45 -37 35 -72 128 -70 190 2 71 -12 133 -53 233 -40 97 -56 176 -50 238 3 34 -3 73 -18 126 -22 72 -22 81 -10 159 22 138 23 205 5 274 -19 69 -15 114 14 173 10 19 22 53 25 75 4 22 13 54 21 70 18 42 40 109 60 180 9 33 25 71 35 85 29 42 107 203 119 247 6 22 18 46 26 53 8 7 15 16 15 21 0 5 26 49 57 97 31 48 56 97 55 109 -1 13 18 54 43 92 25 38 45 76 45 85 0 8 4 17 9 20 11 7 101 140 101 151 0 16 -153 -159 -238 -272 -18 -23 -38 -43 -45 -43 -6 -1 -25 -22 -41 -48 -16 -26 -43 -64 -59 -84 -31 -41 -63 -52 -54 -18 6 22 -3 26 -21 8 -9 -9 -13 -7 -18 7 -8 19 18 98 51 160 12 22 48 88 78 148 65 125 151 255 193 292 13 11 61 79 149 210 55 82 190 236 258 295 20 17 37 40 37 49 0 19 66 91 84 91 7 0 23 11 36 25 21 22 22 29 12 45 -15 24 -16 104 -2 130 8 14 6 27 -8 49 -16 26 -17 39 -8 100 5 39 7 74 3 77 -4 4 -40 -16 -82 -44 -41 -28 -84 -54 -96 -57 -19 -6 -20 -4 -14 25 5 23 3 34 -9 43 -15 11 -15 19 -5 67 6 30 16 61 21 68 20 23 -8 12 -72 -32z"
       id="path3"
       style="fill:#ffffff;fill-opacity:1" />
    <path
       d="M4435 2143 c0 -21 -5 -29 -22 -31 -19 -3 -21 -8 -16 -60 4 -45 2 -60 -11 -71 -12 -10 -16 -31 -16 -80 0 -37 -5 -72 -11 -78 -6 -6 -14 -50 -16 -97 -5 -71 -3 -86 9 -86 8 0 27 -13 42 -29 15 -16 40 -31 56 -33 27 -4 28 -2 44 63 9 37 16 83 16 102 0 20 4 39 10 42 5 3 9 37 9 76 -1 38 3 75 9 82 5 6 12 44 15 82 3 39 8 79 11 90 6 17 0 22 -41 32 -26 7 -57 15 -68 18 -18 5 -21 2 -20 -22z"
       id="path4"
       style="fill:#ffffff;fill-opacity:1" />
  </g>
</svg>
