<?xml version="1.0" encoding="UTF-8" standalone="no"?>
<svg
   version="1.0"
   width="1998.590751pt"
   height="523.634263pt"
   viewBox="0 0 1998.590751 523.634263"
   preserveAspectRatio="xMidYMid meet"
   id="svg27"
   sodipodi:docname="phrk-org_logo_white.svg"
   inkscape:version="1.4.4 (dcaf3e7d9e, 2026-05-05)"
   xmlns:inkscape="http://www.inkscape.org/namespaces/inkscape"
   xmlns:sodipodi="http://sodipodi.sourceforge.net/DTD/sodipodi-0.dtd"
   xmlns="http://www.w3.org/2000/svg"
   xmlns:svg="http://www.w3.org/2000/svg">
  <defs
     id="defs27" />
  <sodipodi:namedview
     id="namedview27"
     pagecolor="#505050"
     bordercolor="#ffffff"
     borderopacity="1"
     inkscape:showpageshadow="0"
     inkscape:pageopacity="0"
     inkscape:pagecheckerboard="1"
     inkscape:deskcolor="#505050"
     inkscape:document-units="pt"
     inkscape:zoom="0.32"
     inkscape:cx="1500"
     inkscape:cy="1089.0625"
     inkscape:window-width="1693"
     inkscape:window-height="1363"
     inkscape:window-x="0"
     inkscape:window-y="0"
     inkscape:window-maximized="1"
     inkscape:current-layer="svg27" />
  <metadata
     id="metadata1">
Created by potrace 1.12, written by Peter Selinger 2001-2015
</metadata>
  <g
     transform="translate(-1.315985,523.829788) scale(0.100000,-0.100000)"
     fill="#000000"
     stroke="none"
     id="g27"
     style="fill:#ffffff;fill-opacity:1">
    <path
       d="M4668 5234 c-3 -5 -31 -121 -63 -259 -31 -137 -68 -285 -81 -327 -22 -70 -63 -138 -84 -138 -10 0 -30 56 -30 86 0 12 -5 35 -11 51 -10 26 -12 26 -19 8 -15 -41 -32 -257 -37 -502 -5 -221 -4 -253 9 -253 22 0 28 -102 17 -285 -12 -215 -20 -283 -33 -294 -13 -10 -113 -41 -134 -41 -11 0 -13 8 -8 30 5 27 3 30 -21 30 -44 0 -410 -80 -538 -117 -66 -20 -128 -38 -139 -41 -10 -3 -22 1 -27 9 -13 19 0 281 17 347 22 89 35 379 32 717 -3 281 -5 320 -19 323 -18 3 -29 -18 -76 -153 -19 -55 -41 -106 -48 -114 -26 -27 -29 34 -6 119 25 91 25 90 9 90 -13 0 -34 -29 -75 -100 -42 -72 -95 -225 -130 -373 -19 -83 -37 -154 -39 -156 -14 -14 -30 36 -60 190 -40 201 -51 242 -67 236 -16 -5 -24 -65 -36 -291 -15 -259 -13 -720 3 -881 7 -71 10 -133 7 -137 -3 -4 -134 -49 -291 -101 -157 -52 -306 -107 -333 -123 -46 -28 -59 -44 -34 -44 14 1 203 38 367 74 127 28 156 22 108 -19 -16 -13 -36 -29 -45 -34 -16 -9 -16 -12 -3 -21 8 -5 31 -10 50 -10 l35 -1 -23 -19 c-13 -10 -70 -44 -127 -75 -57 -31 -107 -61 -111 -66 -9 -15 60 -6 249 33 82 16 152 27 155 23 4 -4 10 -239 13 -523 4 -284 12 -571 19 -637 13 -131 37 -220 59 -220 14 0 81 149 106 239 27 96 39 76 60 -99 19 -165 60 -420 78 -489 13 -51 30 -68 40 -42 9 22 25 235 37 473 5 110 13 208 16 217 3 8 14 18 25 21 11 4 27 21 36 38 14 28 15 85 11 570 -5 514 -4 538 13 548 30 16 327 85 597 139 139 27 254 50 256 50 2 0 6 -116 9 -257 2 -142 10 -350 16 -463 33 -603 32 -595 69 -588 13 2 26 37 52 132 19 71 40 131 46 133 20 7 34 -56 50 -212 11 -106 23 -171 41 -220 33 -89 81 -236 130 -394 21 -68 43 -126 50 -128 21 -7 26 121 13 364 -13 247 -9 558 9 628 5 22 17 126 25 230 9 105 20 237 26 295 5 58 15 221 20 363 6 141 14 276 18 299 8 47 0 41 155 112 53 25 97 47 97 50 0 3 -41 4 -91 3 -67 -1 -93 1 -96 11 -3 8 44 35 130 76 74 35 138 70 142 76 10 16 -85 8 -253 -21 -63 -10 -119 -16 -124 -12 -12 7 -4 350 12 513 13 132 12 642 -1 737 -12 84 -25 121 -40 106 -5 -5 -26 -56 -47 -114 -42 -117 -63 -136 -82 -72 -6 21 -15 178 -21 348 -10 284 -17 353 -31 329z"
       id="path1"
       style="fill:#ffffff;fill-opacity:1" />
    <path
       d="M12570 5096 c-18 -39 -32 -93 -101 -390 -11 -49 -41 -142 -66 -207 l-45 -117 -61 -17 c-190 -53 -429 -138 -471 -168 -232 -165 -473 -390 -580 -539 -78 -111 -191 -375 -237 -555 -21 -85 -39 -174 -39 -197 0 -24 11 -108 25 -187 34 -195 33 -201 -12 -238 -64 -51 -200 -153 -286 -212 -95 -66 -107 -80 -87 -104 21 -25 129 -16 317 25 181 40 168 45 237 -90 36 -69 68 -110 155 -201 60 -63 139 -136 175 -164 l67 -50 -5 -130 c-3 -71 -14 -200 -26 -285 -11 -85 -20 -165 -20 -178 l0 -23 40 23 41 23 17 -23 c17 -22 18 -23 35 -5 19 22 97 187 152 323 21 52 44 101 51 109 10 11 24 7 85 -26 41 -22 97 -53 124 -71 59 -37 155 -62 355 -93 124 -20 186 -23 420 -23 254 0 281 1 354 22 75 21 220 89 401 187 l82 45 90 -88 c50 -48 100 -107 112 -130 12 -23 36 -58 53 -78 41 -47 198 -166 212 -161 17 6 8 55 -50 276 -30 113 -64 261 -76 328 l-21 121 85 109 c117 149 142 191 179 302 18 53 52 143 76 201 42 102 43 108 43 216 0 206 -20 516 -40 616 -11 53 -20 98 -20 101 0 4 93 83 218 184 35 29 93 70 127 93 79 49 135 98 135 116 0 22 -87 17 -181 -11 -152 -45 -309 -85 -365 -91 l-55 -7 -67 70 c-37 38 -105 111 -151 161 -64 72 -121 120 -250 211 -176 126 -219 151 -291 172 -25 7 -99 34 -165 60 -98 39 -147 52 -265 69 -80 12 -148 25 -151 28 -4 4 -23 64 -43 135 -20 70 -60 189 -90 265 -29 75 -65 176 -80 225 -15 48 -31 87 -37 87 -6 0 -19 -20 -29 -44z m108 -1116 c17 -47 61 -168 98 -270 36 -101 81 -214 99 -250 40 -81 105 -242 105 -263 0 -20 -64 -46 -314 -128 -262 -86 -321 -103 -339 -96 -23 9 -3 91 68 282 36 97 79 239 100 330 98 420 124 511 145 489 4 -5 21 -47 38 -94z m505 -24 c72 -29 144 -56 159 -60 44 -10 356 -254 447 -349 l33 -35 -48 -22 c-27 -12 -105 -41 -174 -66 -69 -25 -155 -56 -192 -70 -37 -14 -75 -24 -85 -22 -23 4 -78 114 -184 368 -118 281 -127 310 -98 310 5 0 69 -24 142 -54z m-933 20 c0 -39 -45 -201 -95 -341 -25 -71 -73 -222 -106 -335 -111 -379 -129 -429 -160 -448 -11 -7 -89 -39 -172 -71 -84 -32 -196 -79 -251 -105 -54 -25 -100 -46 -102 -46 -7 0 -3 226 6 347 9 110 14 133 51 220 102 240 175 350 332 500 107 102 190 162 264 192 26 11 86 40 133 65 47 25 88 46 93 46 4 0 7 -11 7 -24z m1738 -728 c17 -22 30 -109 37 -248 8 -161 -6 -306 -41 -428 -55 -191 -147 -388 -177 -380 -19 6 -101 178 -158 332 -29 78 -87 216 -130 307 -44 92 -79 171 -79 177 0 16 38 36 175 92 72 29 175 77 230 106 104 56 126 62 143 42z m-846 -428 c42 -86 104 -265 112 -327 3 -23 38 -118 77 -210 171 -403 174 -411 160 -427 -35 -42 -372 -178 -525 -211 -62 -14 -102 -16 -185 -11 -125 8 -349 39 -478 65 -100 21 -224 79 -289 135 l-38 33 28 109 c22 85 123 359 224 608 6 14 95 48 352 136 190 64 379 131 420 148 41 16 82 29 90 28 8 0 32 -35 52 -76z m-1402 -400 c0 -26 -70 -324 -86 -370 -12 -33 -176 190 -190 256 -4 21 -1 34 10 44 18 14 232 98 254 99 7 1 12 -11 12 -29z"
       id="path2"
       style="fill:#ffffff;fill-opacity:1" />
    <path
       d="M1016 4964 c-4 -9 -18 -96 -32 -192 -26 -180 -29 -192 -44 -192 -28 0 -36 127 -14 215 15 59 -50 3 -94 -80 -14 -27 -31 -75 -37 -105 -11 -53 -12 -55 -47 -58 -20 -2 -105 6 -190 18 -242 33 -538 39 -538 11 0 -5 55 -28 123 -51 135 -48 197 -76 197 -89 0 -5 -14 -12 -31 -16 -16 -4 -28 -12 -26 -18 2 -7 65 -31 141 -53 76 -23 140 -45 144 -49 4 -4 12 -28 19 -53 7 -26 23 -87 36 -137 25 -94 75 -452 84 -614 8 -122 -7 -119 -62 12 -22 53 -44 99 -49 104 -14 13 2 -162 29 -314 28 -161 54 -276 95 -423 43 -155 47 -199 20 -233 -12 -15 -72 -57 -133 -93 -139 -83 -197 -122 -197 -134 0 -16 46 -11 96 10 26 11 52 19 58 17 17 -6 -63 -59 -268 -177 -198 -115 -292 -177 -282 -187 12 -13 286 92 540 206 176 79 225 96 236 85 5 -5 16 -126 25 -269 25 -418 50 -663 86 -862 30 -161 39 -152 64 59 8 66 17 123 20 126 11 11 24 -22 35 -93 23 -135 121 -607 136 -653 22 -63 44 -96 57 -83 8 8 7 46 -1 124 -18 167 -16 429 4 502 18 71 44 119 66 123 20 4 31 -29 54 -153 23 -131 53 -190 68 -137 12 45 15 250 7 477 -8 213 -15 279 -45 450 -38 218 -62 446 -52 498 8 41 35 67 151 144 176 117 201 121 115 18 -27 -33 -50 -63 -50 -68 0 -10 43 13 173 90 133 80 308 207 452 328 200 168 538 517 640 660 40 56 85 168 73 180 -3 3 -40 -8 -82 -25 -42 -16 -86 -30 -97 -30 -25 0 -34 22 -19 49 8 16 17 20 35 15 14 -3 25 -3 25 0 0 9 -400 273 -532 352 -190 113 -387 203 -419 192 -6 -2 25 -28 69 -57 78 -51 125 -91 106 -91 -5 0 -117 33 -250 74 -132 41 -303 91 -380 112 -205 54 -186 36 -213 211 -28 184 -50 303 -62 326 -12 21 -25 22 -33 1z m512 -1074 c107 -39 196 -69 199 -66 3 3 -11 25 -31 49 -20 24 -33 46 -30 50 14 13 181 -62 340 -153 125 -72 184 -115 184 -136 0 -22 -66 -83 -238 -220 -194 -155 -233 -180 -260 -163 -17 11 -43 -3 -208 -109 -104 -67 -192 -118 -195 -114 -7 7 -46 282 -74 517 -18 145 -31 425 -22 449 7 18 20 14 335 -104z m582 -865 c0 -41 -166 -175 -217 -175 -13 0 -27 8 -30 17 -9 22 73 97 153 140 65 36 94 41 94 18z"
       id="path3"
       style="fill:#ffffff;fill-opacity:1" />
    <path
       d="M5646 4873 c-9 -38 -25 -124 -36 -193 -12 -69 -23 -133 -26 -142 -5 -16 -19 -18 -118 -18 -137 0 -267 -10 -261 -20 3 -4 68 -29 145 -55 140 -48 181 -67 168 -80 -4 -4 -62 -11 -130 -16 -68 -6 -134 -12 -148 -15 -23 -5 -23 -7 -8 -18 10 -7 64 -23 120 -35 57 -13 119 -27 138 -33 l35 -10 0 -760 -1 -760 -124 -75 c-69 -41 -133 -82 -144 -91 -18 -16 -16 -17 30 -22 26 -3 49 -10 51 -16 2 -6 -34 -37 -79 -69 -136 -96 -178 -129 -178 -137 0 -10 10 -8 216 48 89 24 182 48 208 53 l46 8 0 -56 c0 -31 -7 -110 -15 -176 -32 -263 -6 -820 46 -1008 24 -89 52 -8 69 201 23 298 32 377 41 386 5 5 11 8 13 5 3 -3 12 -62 21 -131 8 -70 27 -162 41 -205 14 -43 43 -156 65 -252 22 -96 44 -181 48 -190 13 -22 26 32 62 249 37 227 45 261 63 254 8 -3 16 -2 19 3 3 5 10 80 17 168 6 88 18 214 26 280 13 95 15 171 10 367 l-7 246 68 58 c82 70 172 129 219 144 75 25 39 -18 -58 -70 -75 -40 -133 -89 -120 -102 12 -12 102 12 186 50 l59 26 36 -41 c56 -63 215 -289 331 -469 120 -188 207 -307 281 -388 56 -61 107 -102 116 -92 3 3 -13 59 -36 124 -46 134 -50 151 -24 131 9 -8 123 -147 254 -309 277 -343 315 -387 324 -378 4 4 -7 47 -25 97 -18 49 -30 95 -27 103 3 8 61 -46 153 -142 212 -223 451 -460 463 -460 18 0 13 14 -41 102 -348 563 -895 1379 -1108 1652 -124 160 -182 248 -210 320 -11 30 -3 39 165 179 216 181 246 217 393 463 129 216 181 318 169 331 -12 12 -77 -42 -138 -115 -33 -39 -65 -72 -70 -72 -13 0 -17 15 -27 98 -9 80 -10 80 63 45 92 -43 -256 238 -435 352 -101 65 -245 138 -322 164 -35 12 -234 49 -442 81 -209 33 -384 65 -391 70 -6 5 -20 26 -31 45 -22 42 -29 43 -46 8 -16 -34 -34 -39 -47 -16 -5 11 -21 100 -36 198 -14 98 -28 182 -31 187 -12 20 -23 3 -38 -59z m531 -834 c48 -17 160 -62 248 -100 88 -38 163 -69 168 -69 4 0 -8 24 -28 52 -39 59 -42 68 -20 68 22 0 246 -117 340 -178 104 -66 129 -93 121 -126 -15 -59 -246 -286 -387 -380 -158 -106 -544 -306 -558 -290 -5 5 -2 86 6 179 7 94 12 202 11 240 l-3 70 -45 -92 c-24 -51 -47 -93 -52 -93 -4 0 -8 21 -8 48 0 80 68 660 80 681 14 27 22 27 127 -10z"
       id="path4"
       style="fill:#ffffff;fill-opacity:1" />
    <path
       d="M10430 4832 c-52 -32 -220 -142 -373 -245 -153 -103 -286 -187 -296 -187 -9 0 -26 6 -36 14 -18 13 -16 18 39 100 31 47 79 116 106 153 27 37 47 69 45 71 -7 7 -63 -38 -215 -169 -74 -64 -265 -221 -425 -349 -413 -332 -572 -467 -563 -475 2 -2 50 23 106 56 56 34 106 59 113 57 41 -14 -414 -438 -471 -438 -9 0 -10 96 -3 428 10 541 10 951 0 977 -7 16 -10 17 -18 5 -9 -14 -13 -29 -39 -127 -11 -42 -11 -43 -34 -27 -13 8 -26 11 -29 7 -9 -15 -26 -125 -47 -308 -25 -227 -30 -255 -40 -255 -5 0 -34 52 -64 115 -30 63 -59 115 -64 115 -4 0 -15 -40 -25 -88 -32 -172 -47 -178 -78 -36 -10 49 -28 112 -39 139 -26 68 -45 149 -66 280 -9 61 -21 121 -26 135 -10 24 -11 24 -18 5 -5 -11 -9 -218 -9 -460 -1 -349 3 -496 19 -710 23 -305 36 -659 26 -698 -8 -33 -94 -141 -235 -295 -62 -68 -111 -125 -108 -128 6 -6 153 103 233 172 34 29 73 59 89 66 24 11 29 10 41 -7 8 -10 14 -42 14 -69 0 -28 7 -97 15 -153 8 -57 21 -212 30 -345 24 -372 37 -470 60 -447 2 3 15 47 29 98 28 109 37 122 66 96 27 -25 58 -128 76 -255 26 -184 85 -407 104 -395 10 6 33 103 60 260 11 66 32 156 47 200 31 93 32 120 10 278 -10 65 -17 172 -17 238 0 104 2 119 17 119 15 0 16 17 9 182 l-7 182 108 108 c59 59 113 108 119 108 7 0 56 -75 110 -167 145 -251 334 -567 453 -758 91 -146 106 -166 109 -142 2 16 7 27 12 25 11 -4 178 -202 324 -383 133 -166 204 -245 218 -245 15 0 5 33 -81 248 -81 204 -99 262 -83 262 5 0 62 -75 127 -167 148 -209 261 -355 391 -503 115 -131 372 -385 381 -376 3 3 -84 155 -194 338 -124 206 -241 415 -306 548 -58 118 -149 288 -201 378 -53 90 -158 281 -233 425 -199 383 -321 580 -297 480 4 -15 24 -85 45 -154 44 -144 45 -146 23 -128 -59 49 -384 626 -384 682 0 26 75 102 337 341 95 86 220 207 278 269 90 95 103 113 85 115 -12 2 -20 7 -18 12 12 35 345 407 540 606 131 132 238 244 238 247 0 14 -18 6 -110 -51z"
       id="path5"
       style="fill:#ffffff;fill-opacity:1" />
    <path
       d="M17980 4740 c0 -13 115 -87 207 -133 39 -20 75 -41 78 -47 9 -14 -238 -260 -260 -260 -23 0 -16 25 47 166 28 63 48 117 44 121 -26 27 -149 -135 -495 -652 -439 -657 -612 -949 -677 -1141 -25 -76 -29 -149 -8 -149 6 0 42 37 78 83 37 45 72 82 79 82 7 0 32 -44 57 -97 98 -214 239 -411 240 -335 1 34 57 -44 79 -111 29 -85 75 -155 202 -307 124 -149 402 -436 407 -422 2 6 -4 25 -13 42 -14 28 -14 31 0 37 26 10 310 -191 339 -240 9 -16 2 -27 -46 -71 -32 -29 -58 -57 -58 -61 0 -16 127 4 206 32 171 61 331 176 585 421 l146 141 7 -137 c4 -75 14 -180 23 -232 19 -112 21 -225 7 -445 -10 -159 -9 -195 7 -195 17 0 71 135 125 316 31 104 61 197 66 207 13 25 31 9 48 -43 7 -22 17 -37 21 -33 5 5 20 121 34 258 14 138 39 329 56 425 45 261 57 351 64 505 9 209 10 212 53 226 64 20 202 87 202 97 0 16 -39 22 -137 22 -51 0 -95 5 -98 10 -23 37 43 85 187 135 110 39 128 49 112 65 -7 7 -72 4 -200 -10 -291 -32 -564 -58 -724 -70 -231 -17 -455 -52 -478 -74 -3 -3 1 -17 8 -31 7 -14 11 -27 9 -29 -2 -3 -63 -14 -134 -26 -115 -18 -221 -41 -264 -56 -40 -14 23 -25 193 -36 149 -9 189 -15 194 -26 9 -26 -36 -51 -159 -89 -66 -20 -119 -40 -119 -44 0 -15 140 -20 265 -10 214 18 390 39 488 57 l27 6 0 -129 0 -128 -102 -85 c-186 -156 -385 -297 -445 -314 -25 -8 -50 12 -213 169 -132 127 -189 175 -211 175 -21 0 -79 62 -167 182 -96 130 -271 391 -306 459 -28 52 -29 58 -16 89 35 84 258 408 504 730 69 90 123 166 121 168 -2 2 -36 -21 -76 -53 -91 -71 -129 -92 -129 -71 0 13 258 267 305 300 19 13 33 7 175 -76 190 -111 325 -199 409 -267 63 -51 81 -60 81 -41 0 41 75 -36 233 -241 58 -75 83 -99 103 -99 12 0 -1 52 -38 153 -27 74 -43 138 -48 187 -5 52 -17 97 -39 144 -17 38 -31 75 -31 82 0 38 63 -4 236 -156 58 -51 107 -90 111 -87 3 3 -30 70 -73 149 -69 125 -90 154 -169 233 -50 50 -155 139 -235 199 -80 60 -200 151 -267 202 -151 115 -186 133 -276 143 -44 5 -124 28 -202 56 -229 84 -355 114 -355 85z m310 -2687 c119 -114 175 -182 168 -204 -5 -15 -97 58 -207 165 -89 87 -141 150 -141 173 0 26 58 -17 180 -134z"
       id="path6"
       style="fill:#ffffff;fill-opacity:1" />
    <path
       d="M15130 4705 c-6 -14 -10 -32 -10 -39 0 -25 -26 -34 -145 -51 -346 -47 -396 -55 -417 -66 l-23 -13 30 -7 c17 -4 64 -7 106 -8 104 -1 171 -11 166 -25 -2 -6 -30 -21 -63 -32 -96 -35 -137 -54 -131 -60 3 -3 67 -12 142 -19 176 -16 191 -29 95 -81 -28 -15 -50 -30 -50 -34 0 -4 32 -10 71 -13 39 -3 74 -9 78 -12 3 -4 8 -119 10 -257 3 -278 1 -287 -53 -184 -24 47 -31 54 -39 40 -13 -22 -1 -288 23 -505 9 -93 15 -180 12 -194 -4 -23 -20 -34 -98 -70 -52 -24 -94 -49 -94 -54 0 -7 34 -11 94 -11 69 0 97 -4 106 -14 22 -28 32 -346 26 -847 l-7 -485 25 -23 c35 -33 43 -67 51 -211 10 -201 44 -420 65 -420 23 0 46 184 65 520 18 322 30 436 52 469 14 22 17 23 28 8 7 -10 15 -54 19 -100 14 -168 38 -383 45 -407 6 -21 10 -13 25 50 9 41 27 135 38 208 12 72 26 132 30 132 6 0 35 -88 54 -163 8 -33 23 -45 25 -20 1 10 5 292 8 628 l6 609 47 18 c26 9 97 40 158 68 62 28 116 50 120 48 5 -2 67 -91 139 -198 72 -107 158 -233 191 -280 69 -98 123 -196 118 -212 -2 -6 -48 37 -103 95 -54 59 -100 105 -102 103 -14 -13 197 -379 341 -591 121 -179 402 -525 427 -525 14 0 11 30 -12 135 -26 118 -21 140 22 99 45 -42 132 -159 246 -330 118 -176 178 -252 281 -351 117 -114 117 -108 -8 122 -48 88 -170 322 -272 520 -102 198 -221 425 -265 505 -130 239 -134 258 -34 179 29 -23 54 -39 57 -36 7 7 -63 145 -164 322 -106 186 -177 298 -277 440 -93 131 -118 181 -104 207 6 10 63 60 127 112 131 104 219 189 263 253 17 24 34 43 38 43 5 0 15 -25 22 -56 8 -30 19 -56 24 -56 6 0 18 24 29 53 30 87 24 480 -10 614 -4 18 0 24 20 29 14 3 26 10 26 15 0 17 -110 109 -183 155 -99 61 -160 79 -407 120 -622 103 -805 120 -964 91 -53 -9 -103 -14 -111 -11 -9 3 -15 19 -15 40 0 44 -17 56 -30 21z m999 -509 c92 -25 208 -76 232 -102 26 -27 30 -95 10 -156 -14 -44 -85 -112 -185 -178 -91 -61 -385 -205 -566 -278 -178 -71 -168 -69 -175 -30 -8 46 -35 565 -35 670 l0 87 83 4 c176 9 580 -2 636 -17z m-79 -665 c0 -15 -71 -70 -126 -97 -34 -17 -80 -28 -140 -34 -49 -5 -136 -16 -194 -24 -97 -13 -133 -13 -99 -2 8 3 93 34 189 69 96 35 202 71 235 80 68 18 135 22 135 8z"
       id="path7"
       style="fill:#ffffff;fill-opacity:1" />
    <path
       d="M10625 1992 c-37 -23 -73 -70 -110 -142 -26 -51 -27 -60 -23 -150 5 -109 18 -139 78 -194 47 -42 132 -86 168 -86 14 0 40 17 66 45 25 25 51 45 60 45 8 0 31 -21 50 -46 l35 -45 14 28 c30 57 61 207 61 293 1 74 -3 92 -28 141 l-28 57 -77 12 c-42 7 -110 23 -151 36 -90 28 -78 28 -115 6z m306 -92 c61 -33 65 -180 4 -156 -39 15 -91 136 -68 159 10 10 42 8 64 -3z"
       id="path8"
       style="fill:#ffffff;fill-opacity:1" />
    <path
       d="M11378 913 c-28 -7 -22 -23 25 -71 l42 -43 6 -192 c3 -106 2 -223 -2 -261 -7 -64 -10 -72 -45 -101 -34 -29 -36 -32 -18 -40 10 -4 66 -10 123 -13 86 -4 103 -2 98 9 -50 115 -59 148 -61 209 l-1 66 65 77 c66 79 74 84 100 67 12 -8 15 -36 14 -157 -1 -128 -4 -155 -23 -202 -12 -30 -20 -60 -17 -68 4 -10 33 -13 116 -13 135 0 138 3 86 104 -32 63 -39 87 -52 201 -17 145 -34 185 -99 225 -38 24 -50 23 -127 -6 -26 -10 -50 -16 -53 -12 -4 3 -11 38 -16 77 -4 39 -15 84 -23 100 -21 40 -81 59 -138 44z"
       id="path9"
       style="fill:#ffffff;fill-opacity:1" />
    <path
       d="M13663 909 c-47 -13 -49 -26 -8 -50 19 -12 41 -31 47 -43 9 -14 14 -107 16 -293 4 -237 2 -273 -11 -273 -8 0 -25 -9 -38 -19 -22 -18 -23 -21 -8 -36 18 -19 123 -26 172 -12 36 10 35 37 -3 59 -33 19 -37 41 -16 91 16 38 42 67 61 67 7 0 31 -27 54 -60 39 -60 40 -61 26 -100 -19 -54 -4 -65 95 -65 75 0 130 19 130 45 0 6 -24 25 -52 44 -29 19 -67 49 -85 68 -42 45 -93 128 -93 152 0 26 84 106 148 141 39 21 52 34 52 51 0 13 -5 26 -10 29 -17 11 -170 7 -206 -5 -36 -12 -47 -43 -19 -54 23 -8 19 -19 -26 -70 -68 -77 -74 -68 -84 119 -4 61 -11 127 -16 148 -14 55 -67 83 -126 66z"
       id="path10"
       style="fill:#ffffff;fill-opacity:1" />
    <path
       d="M18810 902 l-23 -18 37 -31 c50 -41 56 -70 56 -308 0 -223 -7 -265 -44 -300 -31 -29 -33 -41 -7 -55 29 -15 163 -13 186 3 17 13 16 16 -19 47 -42 38 -46 69 -16 118 28 46 46 50 81 16 46 -44 61 -79 57 -137 l-3 -51 45 -8 c25 -5 68 -6 95 -2 92 12 99 39 21 89 -42 26 -69 56 -115 125 -34 50 -61 97 -61 104 0 19 57 69 136 119 83 53 92 63 71 84 -24 24 -187 18 -240 -9 -17 -9 -17 -11 -2 -34 14 -21 14 -27 1 -52 -21 -39 -74 -88 -85 -76 -5 5 -13 80 -19 166 -6 87 -16 167 -22 178 -11 21 -65 50 -94 50 -7 0 -24 -8 -36 -18z"
       id="path11"
       style="fill:#ffffff;fill-opacity:1" />
    <path
       d="M19455 896 c-22 -23 -25 -33 -25 -103 0 -73 34 -340 44 -351 11 -10 37 9 46 33 9 24 29 167 45 321 6 55 4 64 -17 87 -35 39 -63 43 -93 13z"
       id="path12"
       style="fill:#ffffff;fill-opacity:1" />
    <path
       d="M15713 900 c-49 -20 -21 -41 75 -60 l62 -13 0 -267 0 -267 -72 -19 -73 -19 -3 -38 -3 -39 203 4 c112 2 211 8 221 12 43 20 9 66 -67 92 -81 28 -90 57 -110 383 -10 167 -17 225 -27 232 -18 11 -177 10 -206 -1z"
       id="path13"
       style="fill:#ffffff;fill-opacity:1" />
    <path
       d="M16225 897 c-24 -18 -13 -34 33 -46 20 -5 56 -14 78 -20 l42 -11 6 -103 c3 -56 2 -173 -2 -260 -8 -173 -8 -172 -72 -182 -49 -8 -84 -27 -89 -50 -7 -39 22 -45 225 -45 165 0 195 2 209 16 9 9 14 23 11 31 -3 8 -6 17 -6 19 0 3 -29 18 -64 34 -36 16 -71 39 -80 52 -23 36 -36 135 -44 352 -8 177 -10 200 -27 212 -26 19 -194 19 -220 1z"
       id="path14"
       style="fill:#ffffff;fill-opacity:1" />
    <path
       d="M12702 729 c-84 -42 -132 -139 -132 -269 0 -124 43 -201 141 -255 93 -50 185 -28 236 57 26 41 37 88 23 88 -6 0 -46 -22 -89 -50 -43 -27 -87 -50 -98 -50 -48 0 -133 88 -133 138 0 39 26 47 193 61 149 13 163 28 135 139 -15 59 -88 135 -144 151 -57 16 -84 14 -132 -10z m136 -69 c43 -27 74 -77 61 -102 -15 -27 -106 -49 -191 -46 -67 3 -73 5 -70 23 5 31 54 97 91 122 42 28 66 29 109 3z"
       id="path15"
       style="fill:#ffffff;fill-opacity:1" />
    <path
       d="M13224 741 c-49 -12 -90 -47 -113 -94 -24 -48 -26 -69 -11 -98 21 -39 82 -14 99 40 16 54 42 75 85 68 77 -12 120 -73 78 -108 -12 -9 -53 -24 -91 -33 -134 -30 -190 -77 -199 -166 -6 -61 19 -114 67 -145 54 -36 96 -39 174 -15 65 20 68 20 116 3 64 -22 97 -12 124 40 25 48 14 75 -33 91 l-35 11 -6 146 c-7 172 -20 209 -82 240 -44 23 -126 32 -173 20z m154 -348 c4 -41 -11 -69 -51 -93 -44 -27 -99 -26 -133 3 -35 30 -27 56 27 86 52 30 87 40 124 38 26 -2 30 -6 33 -34z"
       id="path16"
       style="fill:#ffffff;fill-opacity:1" />
    <path
       d="M15255 731 c-87 -39 -138 -150 -84 -184 24 -15 71 12 82 48 14 44 36 65 68 65 58 0 119 -41 119 -81 0 -26 -61 -54 -147 -68 -68 -11 -99 -29 -133 -78 -57 -83 -39 -198 38 -237 55 -28 90 -29 163 -6 69 22 71 23 122 5 49 -17 55 -17 85 -1 39 20 54 47 50 89 -3 30 -6 32 -45 35 l-43 3 0 127 c-1 70 -5 147 -9 172 -20 103 -158 161 -266 111z m176 -303 c5 -58 -19 -111 -61 -133 -63 -33 -144 -8 -138 42 4 32 40 60 109 84 64 22 89 24 90 7z"
       id="path17"
       style="fill:#ffffff;fill-opacity:1" />
    <path
       d="M17924 726 c-93 -43 -129 -116 -129 -256 0 -121 20 -175 82 -229 80 -71 171 -80 241 -24 53 43 105 143 74 143 -4 0 -38 -22 -76 -50 -57 -42 -76 -50 -112 -50 -36 0 -51 6 -84 36 -38 35 -62 85 -52 111 6 17 25 22 161 38 67 8 134 20 149 27 39 19 41 71 7 140 -34 68 -60 96 -110 119 -53 25 -90 24 -151 -5z m154 -91 c39 -42 44 -88 11 -106 -12 -6 -69 -14 -125 -17 -98 -5 -104 -4 -104 15 0 22 48 100 76 124 46 39 96 33 142 -16z"
       id="path18"
       style="fill:#ffffff;fill-opacity:1" />
    <path
       d="M18445 732 c-47 -22 -98 -77 -121 -130 -24 -57 -30 -178 -10 -244 28 -97 128 -178 221 -178 81 0 139 41 166 119 20 56 -1 58 -75 7 -37 -25 -78 -49 -92 -52 -60 -15 -144 58 -144 127 0 51 12 56 170 67 149 11 164 20 158 98 -12 144 -155 241 -273 186z m145 -89 c69 -68 61 -106 -29 -123 -29 -5 -85 -10 -122 -10 -67 0 -69 1 -69 25 0 18 18 44 58 85 73 75 103 79 162 23z"
       id="path19"
       style="fill:#ffffff;fill-opacity:1" />
    <path
       d="M12300 714 c-44 -12 -66 -13 -109 -5 -109 22 -181 10 -181 -29 0 -13 14 -23 48 -36 74 -28 72 -22 72 -168 0 -72 -3 -141 -6 -154 -4 -14 -24 -32 -53 -47 -67 -34 -77 -49 -52 -74 19 -19 33 -21 155 -21 116 0 137 2 157 19 20 16 22 23 14 46 -6 16 -27 37 -50 49 -56 31 -66 56 -63 148 2 59 8 83 24 105 29 38 52 39 101 4 41 -30 54 -34 84 -32 48 3 52 156 5 186 -34 22 -87 25 -146 9z"
       id="path20"
       style="fill:#ffffff;fill-opacity:1" />
    <path
       d="M14362 714 c-48 -25 -79 -66 -87 -119 -5 -39 -2 -56 20 -101 34 -69 56 -83 147 -96 40 -5 80 -14 90 -19 42 -23 -2 -109 -55 -109 -29 0 -139 70 -180 113 -39 42 -50 24 -42 -68 10 -115 10 -115 64 -114 25 0 77 -7 115 -16 38 -9 82 -13 98 -10 64 15 128 100 128 172 0 45 -41 138 -67 151 -10 5 -49 12 -88 15 -87 6 -143 25 -162 54 -14 21 -13 25 15 53 41 40 83 40 146 -2 39 -25 53 -30 73 -22 34 12 47 35 39 67 -5 22 -16 29 -59 41 -89 25 -158 29 -195 10z"
       id="path21"
       style="fill:#ffffff;fill-opacity:1" />
    <path
       d="M17400 710 c-46 -11 -56 -28 -63 -109 -7 -84 -26 -151 -42 -151 -12 0 -26 43 -40 116 -4 20 0 47 10 70 15 36 15 40 -1 51 -19 14 -92 27 -120 21 -28 -5 -28 -38 0 -94 13 -27 43 -123 66 -214 23 -91 48 -180 55 -198 29 -69 67 -30 109 114 17 59 36 109 42 111 6 2 20 -32 33 -79 30 -110 56 -168 76 -168 21 0 65 44 65 65 0 30 59 258 92 353 37 108 34 116 -45 117 l-52 0 -6 -86 c-4 -64 -12 -97 -30 -129 -13 -24 -28 -43 -34 -43 -15 -1 -23 48 -24 161 l-1 102 -27 -1 c-16 -1 -44 -5 -63 -9z"
       id="path22"
       style="fill:#ffffff;fill-opacity:1" />
    <path
       d="M10877 703 c-55 -6 -59 -29 -11 -69 l39 -33 3 -220 c3 -248 -3 -293 -47 -315 -15 -8 -34 -22 -41 -31 -24 -28 6 -35 145 -33 116 3 130 5 133 21 2 12 -12 33 -37 56 -31 28 -41 46 -41 68 l0 30 75 5 c65 4 81 9 112 35 46 36 70 82 84 158 18 99 -3 211 -51 273 -45 56 -64 62 -200 60 -69 -1 -142 -3 -163 -5z m277 -94 c36 -28 52 -63 60 -129 13 -107 -26 -200 -90 -216 -31 -8 -81 21 -100 59 -22 40 -30 159 -15 213 22 83 89 117 145 73z"
       id="path23"
       style="fill:#ffffff;fill-opacity:1" />
    <path
       d="M9665 346 c-48 -63 -49 -138 -3 -171 47 -32 107 -4 128 60 14 42 -7 94 -50 125 -38 27 -45 26 -75 -14z"
       id="path24"
       style="fill:#ffffff;fill-opacity:1" />
    <path
       d="M10235 340 c-35 -36 -40 -47 -40 -86 0 -38 5 -50 28 -70 63 -54 137 -12 137 77 0 40 -5 53 -34 83 -18 20 -38 36 -43 36 -5 0 -27 -18 -48 -40z"
       id="path25"
       style="fill:#ffffff;fill-opacity:1" />
    <path
       d="M19480 373 c-95 -35 -88 -203 9 -203 91 0 121 129 43 190 -26 21 -28 22 -52 13z"
       id="path26"
       style="fill:#ffffff;fill-opacity:1" />
    <path
       d="M9960 357 c-68 -34 -64 -175 5 -193 97 -24 150 121 68 186 -30 23 -39 24 -73 7z"
       id="path27"
       style="fill:#ffffff;fill-opacity:1" />
  </g>
</svg>
